<svg width="859" height="247" viewBox="147 20 859 247" fill="none" xmlns="http://www.w3.org/2000/svg">
<path d="M263.04 85.2L246.24 164.88C246 165.76 245.52 166.52 244.8 167.16C244.08 167.72 243.16 168 242.04 168H230.04C229 168 228.08 167.72 227.28 167.16C226.56 166.52 226.12 165.72 225.96 164.76L213 102.48C212.68 100.88 212.36 99.32 212.04 97.8C211.72 96.2 211.4 94.64 211.08 93.12H208.56C208.24 94.64 207.92 96.2 207.6 97.8C207.36 99.4 207.08 100.96 206.76 102.48L193.92 164.76C193.68 165.72 193.16 166.52 192.36 167.16C191.64 167.72 190.76 168 189.72 168H177.6C176.56 168 175.64 167.72 174.84 167.16C174.12 166.52 173.68 165.76 173.52 164.88L156.72 85.2H167.88L180.84 149.76C181.16 151.28 181.44 152.92 181.68 154.68C181.92 156.36 182.2 158.12 182.52 159.96H185.28C185.6 158.12 185.92 156.36 186.24 154.68C186.56 153 186.88 151.36 187.2 149.76L200.04 88.68C200.2 87.64 200.64 86.8 201.36 86.16C202.16 85.52 203.08 85.2 204.12 85.2H215.64C216.68 85.2 217.56 85.52 218.28 86.16C219 86.8 219.48 87.64 219.72 88.68L232.56 149.76C232.96 151.52 233.28 153.24 233.52 154.92C233.84 156.6 234.08 158.28 234.24 159.96H237.24C237.48 158.28 237.72 156.6 237.96 154.92C238.2 153.16 238.48 151.48 238.8 149.88L251.88 85.2H263.04ZM287.789 85.2V168H277.229V85.2H287.789ZM327.269 119.16V128.28H286.829V119.16H327.269ZM336.509 85.2V168H325.949V85.2H336.509Z" fill="#1A1A1A"/>
<rect x="363" y="30" width="10" height="180" fill="#1A1A1A"/>
<rect x="669" y="30" width="10" height="180" fill="#1A1A1A"/>
<path d="M437.08 85.2V168H426.52V85.2H437.08ZM463.84 85.2V94.56H399.88V85.2H463.84ZM492.407 85.08C496.407 85.08 500.407 85.08 504.407 85.08C508.487 85.08 512.487 85.16 516.407 85.32C520.407 85.4 524.247 85.56 527.927 85.8L527.447 94.08H494.207C491.727 94.08 489.887 94.72 488.687 96C487.567 97.2 487.007 99.2 487.007 102V151.2C487.007 154 487.567 156.04 488.687 157.32C489.887 158.6 491.727 159.24 494.207 159.24H527.447L527.927 167.4C524.247 167.64 520.407 167.8 516.407 167.88C512.487 167.96 508.487 168 504.407 168C500.407 168.08 496.407 168.12 492.407 168.12C487.527 168.12 483.647 166.84 480.767 164.28C477.967 161.64 476.527 158.12 476.447 153.72V99.48C476.527 95 477.967 91.48 480.767 88.92C483.647 86.36 487.527 85.08 492.407 85.08ZM478.607 120H522.767V128.52H478.607V120ZM615.194 84.12C621.594 84.12 626.754 84.84 630.674 86.28C634.594 87.64 637.434 90.04 639.194 93.48C641.034 96.92 641.954 101.76 641.954 108C641.954 112.48 641.434 116.24 640.394 119.28C639.354 122.24 637.714 124.56 635.474 126.24C633.314 127.84 630.394 128.88 626.714 129.36V129.96C628.074 130.28 629.394 130.96 630.674 132C632.034 132.96 633.274 134.28 634.394 135.96C635.514 137.56 636.354 139.52 636.914 141.84L644.954 168H633.674L626.354 142.08C625.314 138.96 623.914 136.76 622.154 135.48C620.394 134.12 618.114 133.44 615.314 133.44C610.434 133.44 606.194 133.44 602.594 133.44C598.994 133.36 595.994 133.28 593.594 133.2C591.194 133.12 589.274 133.08 587.834 133.08L588.194 124.32H614.954C619.034 124.24 622.234 123.76 624.554 122.88C626.954 122 628.674 120.44 629.714 118.2C630.754 115.88 631.274 112.68 631.274 108.6C631.274 104.52 630.754 101.4 629.714 99.24C628.674 97 626.954 95.44 624.554 94.56C622.234 93.68 619.034 93.24 614.954 93.24C608.394 93.24 602.714 93.28 597.914 93.36C593.194 93.44 589.994 93.48 588.314 93.48L586.634 85.2C589.674 84.88 592.514 84.64 595.154 84.48C597.794 84.32 600.674 84.24 603.794 84.24C606.994 84.16 610.794 84.12 615.194 84.12ZM597.074 85.2V168H586.634V85.2H597.074Z" fill="#1A1A1A"/>
<path d="M730.32 84.24C737.12 84.24 742.52 84.88 746.52 86.16C750.52 87.36 753.4 89.52 755.16 92.64C757 95.76 757.92 100.16 757.92 105.84C757.92 111.76 756.8 116.28 754.56 119.4C752.4 122.52 748.84 124.32 743.88 124.8V125.28C750.04 125.84 754.32 128 756.72 131.76C759.2 135.52 760.44 140.72 760.44 147.36C760.44 153.04 759.56 157.44 757.8 160.56C756.04 163.68 753.2 165.88 749.28 167.16C745.44 168.36 740.36 168.96 734.04 168.96C729.32 168.96 725.24 168.92 721.8 168.84C718.44 168.84 715.32 168.76 712.44 168.6C709.56 168.44 706.56 168.24 703.44 168L705.12 159.6C706.88 159.68 710.2 159.76 715.08 159.84C720.04 159.92 725.8 159.96 732.36 159.96C736.76 159.96 740.2 159.6 742.68 158.88C745.24 158.08 747.04 156.64 748.08 154.56C749.2 152.48 749.76 149.48 749.76 145.56C749.76 141.24 749.2 137.92 748.08 135.6C746.96 133.28 745.08 131.64 742.44 130.68C739.8 129.72 736.2 129.2 731.64 129.12H705V121.08H731.52C735.52 121 738.68 120.6 741 119.88C743.4 119.08 745.12 117.68 746.16 115.68C747.2 113.6 747.72 110.72 747.72 107.04C747.72 103.28 747.16 100.4 746.04 98.4C744.92 96.4 743.04 95.04 740.4 94.32C737.84 93.6 734.32 93.24 729.84 93.24C725.92 93.24 722.4 93.24 719.28 93.24C716.16 93.24 713.4 93.28 711 93.36C708.68 93.36 706.72 93.44 705.12 93.6L703.44 85.2C706.24 84.88 708.88 84.68 711.36 84.6C713.92 84.44 716.68 84.36 719.64 84.36C722.68 84.28 726.24 84.24 730.32 84.24ZM713.76 85.2V168H703.44V85.2H713.76ZM804.734 84.24C811.534 84.24 816.934 84.88 820.934 86.16C824.934 87.36 827.814 89.52 829.574 92.64C831.414 95.76 832.334 100.16 832.334 105.84C832.334 111.76 831.214 116.28 828.974 119.4C826.814 122.52 823.254 124.32 818.294 124.8V125.28C824.454 125.84 828.734 128 831.134 131.76C833.614 135.52 834.854 140.72 834.854 147.36C834.854 153.04 833.974 157.44 832.214 160.56C830.454 163.68 827.614 165.88 823.694 167.16C819.854 168.36 814.774 168.96 808.454 168.96C803.734 168.96 799.654 168.92 796.214 168.84C792.854 168.84 789.734 168.76 786.854 168.6C783.974 168.44 780.974 168.24 777.854 168L779.534 159.6C781.294 159.68 784.614 159.76 789.494 159.84C794.454 159.92 800.214 159.96 806.774 159.96C811.174 159.96 814.614 159.6 817.094 158.88C819.654 158.08 821.454 156.64 822.494 154.56C823.614 152.48 824.174 149.48 824.174 145.56C824.174 141.24 823.614 137.92 822.494 135.6C821.374 133.28 819.494 131.64 816.854 130.68C814.214 129.72 810.614 129.2 806.054 129.12H779.414V121.08H805.934C809.934 121 813.094 120.6 815.414 119.88C817.814 119.08 819.534 117.68 820.574 115.68C821.614 113.6 822.134 110.72 822.134 107.04C822.134 103.28 821.574 100.4 820.454 98.4C819.334 96.4 817.454 95.04 814.814 94.32C812.254 93.6 808.734 93.24 804.254 93.24C800.334 93.24 796.814 93.24 793.694 93.24C790.574 93.24 787.814 93.28 785.414 93.36C783.094 93.36 781.134 93.44 779.534 93.6L777.854 85.2C780.654 84.88 783.294 84.68 785.774 84.6C788.334 84.44 791.094 84.36 794.054 84.36C797.094 84.28 800.654 84.24 804.734 84.24ZM788.174 85.2V168H777.854V85.2H788.174ZM881.908 83.64C887.908 83.64 892.988 84.36 897.148 85.8C901.388 87.24 904.748 89.64 907.228 93C909.788 96.28 911.628 100.68 912.748 106.2C913.948 111.72 914.548 118.52 914.548 126.6C914.548 134.68 913.948 141.48 912.748 147C911.628 152.52 909.788 156.96 907.228 160.32C904.748 163.6 901.388 165.96 897.148 167.4C892.988 168.84 887.908 169.56 881.908 169.56C875.908 169.56 870.788 168.84 866.548 167.4C862.388 165.96 859.028 163.6 856.468 160.32C853.908 156.96 852.028 152.52 850.828 147C849.708 141.48 849.148 134.68 849.148 126.6C849.148 118.52 849.708 111.72 850.828 106.2C852.028 100.68 853.908 96.28 856.468 93C859.028 89.64 862.388 87.24 866.548 85.8C870.788 84.36 875.908 83.64 881.908 83.64ZM881.908 93.12C876.468 93.12 872.148 94.16 868.948 96.24C865.828 98.32 863.588 101.8 862.228 106.68C860.948 111.48 860.308 118.12 860.308 126.6C860.308 135 860.948 141.64 862.228 146.52C863.588 151.4 865.828 154.88 868.948 156.96C872.148 159.04 876.468 160.08 881.908 160.08C887.348 160.08 891.628 159.04 894.748 156.96C897.948 154.88 900.188 151.4 901.468 146.52C902.828 141.64 903.508 135 903.508 126.6C903.508 118.12 902.828 111.48 901.468 106.68C900.188 101.8 897.948 98.32 894.748 96.24C891.628 94.16 887.348 93.12 881.908 93.12ZM996.144 85.2V163.8C996.144 166.6 994.784 168 992.064 168H981.744C980.544 168 979.584 167.72 978.864 167.16C978.144 166.6 977.544 165.76 977.064 164.64L949.104 105.96C948.384 104.36 947.544 102.56 946.584 100.56C945.624 98.56 944.904 96.72 944.424 95.04H942.504C942.664 96.8 942.784 98.6 942.864 100.44C942.944 102.28 942.984 104.12 942.984 105.96V168H932.424V89.4C932.424 86.6 933.824 85.2 936.624 85.2H946.584C947.784 85.2 948.744 85.48 949.464 86.04C950.184 86.6 950.784 87.44 951.264 88.56L978.384 145.8C979.264 147.48 980.184 149.4 981.144 151.56C982.184 153.64 983.144 155.72 984.024 157.8H986.064C985.984 155.64 985.904 153.52 985.824 151.44C985.744 149.36 985.704 147.28 985.704 145.2V85.2H996.144Z" fill="#1A1A1A"/>
<path d="M157.64 255V233.1H170.78V236.37H161.33V242.07H169.73V245.31H161.33V251.73H170.78V255H157.64ZM197.048 255.3C195.548 255.3 194.248 255.05 193.148 254.55C192.048 254.05 191.198 253.34 190.598 252.42C190.018 251.48 189.718 250.38 189.698 249.12H193.448C193.448 250.02 193.768 250.73 194.408 251.25C195.068 251.75 195.958 252 197.078 252C198.158 252 198.998 251.75 199.598 251.25C200.218 250.75 200.528 250.06 200.528 249.18C200.528 248.44 200.308 247.8 199.868 247.26C199.448 246.7 198.838 246.32 198.038 246.12L195.518 245.43C193.798 244.99 192.468 244.2 191.528 243.06C190.608 241.92 190.148 240.54 190.148 238.92C190.148 237.68 190.428 236.6 190.988 235.68C191.548 234.76 192.338 234.05 193.358 233.55C194.398 233.05 195.618 232.8 197.018 232.8C199.138 232.8 200.818 233.35 202.058 234.45C203.298 235.53 203.928 236.99 203.948 238.83H200.198C200.198 237.97 199.918 237.3 199.358 236.82C198.798 236.32 198.008 236.07 196.988 236.07C196.008 236.07 195.248 236.3 194.708 236.76C194.168 237.22 193.898 237.87 193.898 238.71C193.898 239.47 194.098 240.12 194.498 240.66C194.918 241.18 195.518 241.55 196.298 241.77L198.908 242.49C200.648 242.93 201.978 243.72 202.898 244.86C203.818 245.98 204.278 247.37 204.278 249.03C204.278 250.27 203.978 251.37 203.378 252.33C202.778 253.27 201.938 254 200.858 254.52C199.778 255.04 198.508 255.3 197.048 255.3ZM230.037 255.3C228.537 255.3 227.237 255.05 226.137 254.55C225.037 254.05 224.187 253.34 223.587 252.42C223.007 251.48 222.707 250.38 222.687 249.12H226.437C226.437 250.02 226.757 250.73 227.397 251.25C228.057 251.75 228.947 252 230.067 252C231.147 252 231.987 251.75 232.587 251.25C233.207 250.75 233.517 250.06 233.517 249.18C233.517 248.44 233.297 247.8 232.857 247.26C232.437 246.7 231.827 246.32 231.027 246.12L228.507 245.43C226.787 244.99 225.457 244.2 224.517 243.06C223.597 241.92 223.137 240.54 223.137 238.92C223.137 237.68 223.417 236.6 223.977 235.68C224.537 234.76 225.327 234.05 226.347 233.55C227.387 233.05 228.607 232.8 230.007 232.8C232.127 232.8 233.807 233.35 235.047 234.45C236.287 235.53 236.917 236.99 236.937 238.83H233.187C233.187 237.97 232.907 237.3 232.347 236.82C231.787 236.32 230.997 236.07 229.977 236.07C228.997 236.07 228.237 236.3 227.697 236.76C227.157 237.22 226.887 237.87 226.887 238.71C226.887 239.47 227.087 240.12 227.487 240.66C227.907 241.18 228.507 241.55 229.287 241.77L231.897 242.49C233.637 242.93 234.967 243.72 235.887 244.86C236.807 245.98 237.267 247.37 237.267 249.03C237.267 250.27 236.967 251.37 236.367 252.33C235.767 253.27 234.927 254 233.847 254.52C232.767 255.04 231.497 255.3 230.037 255.3ZM255.015 255L260.535 233.1H265.365L270.915 255H267.075L265.875 249.69H260.055L258.855 255H255.015ZM260.745 246.63H265.185L263.865 240.75C263.645 239.77 263.455 238.89 263.295 238.11C263.135 237.31 263.025 236.73 262.965 236.37C262.905 236.73 262.795 237.31 262.635 238.11C262.495 238.89 262.305 239.76 262.065 240.72L260.745 246.63ZM294.063 255V247.05L287.643 233.1H291.573L294.993 240.69C295.253 241.29 295.473 241.88 295.653 242.46C295.833 243.04 295.953 243.49 296.013 243.81C296.093 243.49 296.213 243.04 296.373 242.46C296.553 241.88 296.773 241.29 297.033 240.69L300.363 233.1H304.263L297.843 247.05V255H294.063ZM329.001 255.3C327.501 255.3 326.201 255.05 325.101 254.55C324.001 254.05 323.151 253.34 322.551 252.42C321.971 251.48 321.671 250.38 321.651 249.12H325.401C325.401 250.02 325.721 250.73 326.361 251.25C327.021 251.75 327.911 252 329.031 252C330.111 252 330.951 251.75 331.551 251.25C332.171 250.75 332.481 250.06 332.481 249.18C332.481 248.44 332.261 247.8 331.821 247.26C331.401 246.7 330.791 246.32 329.991 246.12L327.471 245.43C325.751 244.99 324.421 244.2 323.481 243.06C322.561 241.92 322.101 240.54 322.101 238.92C322.101 237.68 322.381 236.6 322.941 235.68C323.501 234.76 324.291 234.05 325.311 233.55C326.351 233.05 327.571 232.8 328.971 232.8C331.091 232.8 332.771 233.35 334.011 234.45C335.251 235.53 335.881 236.99 335.901 238.83H332.151C332.151 237.97 331.871 237.3 331.311 236.82C330.751 236.32 329.961 236.07 328.941 236.07C327.961 236.07 327.201 236.3 326.661 236.76C326.121 237.22 325.851 237.87 325.851 238.71C325.851 239.47 326.051 240.12 326.451 240.66C326.871 241.18 327.471 241.55 328.251 241.77L330.861 242.49C332.601 242.93 333.931 243.72 334.851 244.86C335.771 245.98 336.231 247.37 336.231 249.03C336.231 250.27 335.931 251.37 335.331 252.33C334.731 253.27 333.891 254 332.811 254.52C331.731 255.04 330.461 255.3 329.001 255.3Z" fill="#888888"/>
<path d="M400.31 255V233.1H407.6C409.06 233.1 410.33 233.38 411.41 233.94C412.51 234.5 413.36 235.29 413.96 236.31C414.56 237.31 414.86 238.49 414.86 239.85C414.86 241.19 414.55 242.37 413.93 243.39C413.33 244.41 412.49 245.2 411.41 245.76C410.33 246.32 409.06 246.6 407.6 246.6H404.06V255H400.31ZM404.06 243.21H407.6C408.64 243.21 409.47 242.91 410.09 242.31C410.73 241.69 411.05 240.87 411.05 239.85C411.05 238.81 410.73 237.99 410.09 237.39C409.47 236.79 408.64 236.49 407.6 236.49H404.06V243.21ZM439.988 255.3C438.588 255.3 437.368 255.04 436.328 254.52C435.308 253.98 434.518 253.23 433.958 252.27C433.418 251.29 433.148 250.14 433.148 248.82V239.28C433.148 237.96 433.418 236.82 433.958 235.86C434.518 234.88 435.308 234.13 436.328 233.61C437.368 233.07 438.588 232.8 439.988 232.8C441.408 232.8 442.628 233.07 443.648 233.61C444.668 234.13 445.448 234.88 445.988 235.86C446.548 236.82 446.828 237.95 446.828 239.25V248.82C446.828 250.14 446.548 251.29 445.988 252.27C445.448 253.23 444.668 253.98 443.648 254.52C442.628 255.04 441.408 255.3 439.988 255.3ZM439.988 252C441.008 252 441.778 251.73 442.298 251.19C442.818 250.63 443.078 249.84 443.078 248.82V239.28C443.078 238.24 442.818 237.45 442.298 236.91C441.778 236.37 441.008 236.1 439.988 236.1C438.968 236.1 438.198 236.37 437.678 236.91C437.158 237.45 436.898 238.24 436.898 239.28V248.82C436.898 249.84 437.158 250.63 437.678 251.19C438.218 251.73 438.988 252 439.988 252ZM467.067 255V233.1H470.817V251.52H480.117V255H467.067ZM499.665 255V251.7H504.075V236.4H499.665V233.1H512.265V236.4H507.855V251.7H512.265V255H499.665ZM537.063 255V236.58H531.333V233.1H546.573V236.58H540.843V255H537.063ZM565.641 255V251.7H570.051V236.4H565.641V233.1H578.241V236.4H573.831V251.7H578.241V255H565.641ZM605.05 255.3C603.65 255.3 602.42 255.04 601.36 254.52C600.32 253.98 599.51 253.23 598.93 252.27C598.37 251.29 598.09 250.14 598.09 248.82V239.28C598.09 237.94 598.37 236.79 598.93 235.83C599.51 234.87 600.32 234.13 601.36 233.61C602.42 233.07 603.65 232.8 605.05 232.8C606.47 232.8 607.69 233.07 608.71 233.61C609.75 234.13 610.56 234.87 611.14 235.83C611.72 236.79 612.01 237.94 612.01 239.28H608.23C608.23 238.24 607.95 237.45 607.39 236.91C606.85 236.37 606.07 236.1 605.05 236.1C604.03 236.1 603.24 236.37 602.68 236.91C602.12 237.45 601.84 238.23 601.84 239.25V248.82C601.84 249.84 602.12 250.63 602.68 251.19C603.24 251.73 604.03 252 605.05 252C606.07 252 606.85 251.73 607.39 251.19C607.95 250.63 608.23 249.84 608.23 248.82H612.01C612.01 250.12 611.72 251.26 611.14 252.24C610.56 253.22 609.75 253.98 608.71 254.52C607.69 255.04 606.47 255.3 605.05 255.3ZM637.978 255.3C636.478 255.3 635.178 255.05 634.078 254.55C632.978 254.05 632.128 253.34 631.528 252.42C630.948 251.48 630.648 250.38 630.628 249.12H634.378C634.378 250.02 634.698 250.73 635.338 251.25C635.998 251.75 636.888 252 638.008 252C639.088 252 639.928 251.75 640.528 251.25C641.148 250.75 641.458 250.06 641.458 249.18C641.458 248.44 641.238 247.8 640.798 247.26C640.378 246.7 639.768 246.32 638.968 246.12L636.448 245.43C634.728 244.99 633.398 244.2 632.458 243.06C631.538 241.92 631.078 240.54 631.078 238.92C631.078 237.68 631.358 236.6 631.918 235.68C632.478 234.76 633.268 234.05 634.288 233.55C635.328 233.05 636.548 232.8 637.948 232.8C640.068 232.8 641.748 233.35 642.988 234.45C644.228 235.53 644.858 236.99 644.878 238.83H641.128C641.128 237.97 640.848 237.3 640.288 236.82C639.728 236.32 638.938 236.07 637.918 236.07C636.938 236.07 636.178 236.3 635.638 236.76C635.098 237.22 634.828 237.87 634.828 238.71C634.828 239.47 635.028 240.12 635.428 240.66C635.848 241.18 636.448 241.55 637.228 241.77L639.838 242.49C641.578 242.93 642.908 243.72 643.828 244.86C644.748 245.98 645.208 247.37 645.208 249.03C645.208 250.27 644.908 251.37 644.308 252.33C643.708 253.27 642.868 254 641.788 254.52C640.708 255.04 639.438 255.3 637.978 255.3Z" fill="#888888"/>
<path d="M704.05 255L709.57 233.1H714.4L719.95 255H716.11L714.91 249.69H709.09L707.89 255H704.05ZM709.78 246.63H714.22L712.9 240.75C712.68 239.77 712.49 238.89 712.33 238.11C712.17 237.31 712.06 236.73 712 236.37C711.94 236.73 711.83 237.31 711.67 238.11C711.53 238.89 711.34 239.76 711.1 240.72L709.78 246.63ZM739.648 255V233.1H744.238L750.328 250.8C750.268 250.16 750.198 249.41 750.118 248.55C750.058 247.67 750.008 246.78 749.968 245.88C749.928 244.96 749.908 244.16 749.908 243.48V233.1H753.328V255H748.738L742.708 237.3C742.748 237.88 742.798 238.58 742.858 239.4C742.918 240.22 742.968 241.06 743.008 241.92C743.048 242.78 743.068 243.57 743.068 244.29V255H739.648ZM773.027 255L778.547 233.1H783.377L788.927 255H785.087L783.887 249.69H778.067L776.867 255H773.027ZM778.757 246.63H783.197L781.877 240.75C781.657 239.77 781.467 238.89 781.307 238.11C781.147 237.31 781.037 236.73 780.977 236.37C780.917 236.73 780.807 237.31 780.647 238.11C780.507 238.89 780.317 239.76 780.077 240.72L778.757 246.63ZM809.555 255V233.1H813.305V251.52H822.605V255H809.555ZM848.063 255V247.05L841.643 233.1H845.573L848.993 240.69C849.253 241.29 849.473 241.88 849.653 242.46C849.833 243.04 849.953 243.49 850.013 243.81C850.093 243.49 850.213 243.04 850.373 242.46C850.553 241.88 850.773 241.29 851.033 240.69L854.363 233.1H858.263L851.843 247.05V255H848.063ZM882.551 255V236.58H876.821V233.1H892.061V236.58H886.331V255H882.551ZM912.63 255V251.7H917.04V236.4H912.63V233.1H925.23V236.4H920.82V251.7H925.23V255H912.63ZM953.538 255.3C952.138 255.3 950.908 255.04 949.848 254.52C948.808 253.98 947.998 253.23 947.418 252.27C946.858 251.29 946.578 250.14 946.578 248.82V239.28C946.578 237.94 946.858 236.79 947.418 235.83C947.998 234.87 948.808 234.13 949.848 233.61C950.908 233.07 952.138 232.8 953.538 232.8C954.958 232.8 956.178 233.07 957.198 233.61C958.238 234.13 959.048 234.87 959.628 235.83C960.208 236.79 960.498 237.94 960.498 239.28H956.718C956.718 238.24 956.438 237.45 955.878 236.91C955.338 236.37 954.558 236.1 953.538 236.1C952.518 236.1 951.728 236.37 951.168 236.91C950.608 237.45 950.328 238.23 950.328 239.25V248.82C950.328 249.84 950.608 250.63 951.168 251.19C951.728 251.73 952.518 252 953.538 252C954.558 252 955.338 251.73 955.878 251.19C956.438 250.63 956.718 249.84 956.718 248.82H960.498C960.498 250.12 960.208 251.26 959.628 252.24C959.048 253.22 958.238 253.98 957.198 254.52C956.178 255.04 954.958 255.3 953.538 255.3ZM987.966 255.3C986.466 255.3 985.166 255.05 984.066 254.55C982.966 254.05 982.116 253.34 981.516 252.42C980.936 251.48 980.636 250.38 980.616 249.12H984.366C984.366 250.02 984.686 250.73 985.326 251.25C985.986 251.75 986.876 252 987.996 252C989.076 252 989.916 251.75 990.516 251.25C991.136 250.75 991.446 250.06 991.446 249.18C991.446 248.44 991.226 247.8 990.786 247.26C990.366 246.7 989.756 246.32 988.956 246.12L986.436 245.43C984.716 244.99 983.386 244.2 982.446 243.06C981.526 241.92 981.066 240.54 981.066 238.92C981.066 237.68 981.346 236.6 981.906 235.68C982.466 234.76 983.256 234.05 984.276 233.55C985.316 233.05 986.536 232.8 987.936 232.8C990.056 232.8 991.736 233.35 992.976 234.45C994.216 235.53 994.846 236.99 994.866 238.83H991.116C991.116 237.97 990.836 237.3 990.276 236.82C989.716 236.32 988.926 236.07 987.906 236.07C986.926 236.07 986.166 236.3 985.626 236.76C985.086 237.22 984.816 237.87 984.816 238.71C984.816 239.47 985.016 240.12 985.416 240.66C985.836 241.18 986.436 241.55 987.216 241.77L989.826 242.49C991.566 242.93 992.896 243.72 993.816 244.86C994.736 245.98 995.196 247.37 995.196 249.03C995.196 250.27 994.896 251.37 994.296 252.33C993.696 253.27 992.856 254 991.776 254.52C990.696 255.04 989.426 255.3 987.966 255.3Z" fill="#888888"/>
<path d="M367.2 257.24C366.512 257.24 365.96 257.04 365.544 256.64C365.144 256.24 364.944 255.696 364.944 255.008C364.944 254.32 365.144 253.776 365.544 253.376C365.96 252.96 366.512 252.752 367.2 252.752C367.888 252.752 368.432 252.96 368.832 253.376C369.248 253.776 369.456 254.32 369.456 255.008C369.456 255.696 369.248 256.24 368.832 256.64C368.432 257.04 367.888 257.24 367.2 257.24Z" fill="#C8202A"/>
<path d="M674.2 257.24C673.512 257.24 672.96 257.04 672.544 256.64C672.144 256.24 671.944 255.696 671.944 255.008C671.944 254.32 672.144 253.776 672.544 253.376C672.96 252.96 673.512 252.752 674.2 252.752C674.888 252.752 675.432 252.96 675.832 253.376C676.248 253.776 676.456 254.32 676.456 255.008C676.456 255.696 676.248 256.24 675.832 256.64C675.432 257.04 674.888 257.24 674.2 257.24Z" fill="#C8202A"/>
</svg>
