<svg width="863" height="252" viewBox="0 0 863 252" fill="none" xmlns="http://www.w3.org/2000/svg">
<path d="M110.04 55.2L93.24 134.88C93 135.76 92.52 136.52 91.8 137.16C91.08 137.72 90.16 138 89.04 138H77.04C76 138 75.08 137.72 74.28 137.16C73.56 136.52 73.12 135.72 72.96 134.76L60 72.48C59.68 70.88 59.36 69.32 59.04 67.8C58.72 66.2 58.4 64.64 58.08 63.12H55.56C55.24 64.64 54.92 66.2 54.6 67.8C54.36 69.4 54.08 70.96 53.76 72.48L40.92 134.76C40.68 135.72 40.16 136.52 39.36 137.16C38.64 137.72 37.76 138 36.72 138H24.6C23.56 138 22.64 137.72 21.84 137.16C21.12 136.52 20.68 135.76 20.52 134.88L3.72 55.2H14.88L27.84 119.76C28.16 121.28 28.44 122.92 28.68 124.68C28.92 126.36 29.2 128.12 29.52 129.96H32.28C32.6 128.12 32.92 126.36 33.24 124.68C33.56 123 33.88 121.36 34.2 119.76L47.04 58.68C47.2 57.64 47.64 56.8 48.36 56.16C49.16 55.52 50.08 55.2 51.12 55.2H62.64C63.68 55.2 64.56 55.52 65.28 56.16C66 56.8 66.48 57.64 66.72 58.68L79.56 119.76C79.96 121.52 80.28 123.24 80.52 124.92C80.84 126.6 81.08 128.28 81.24 129.96H84.24C84.48 128.28 84.72 126.6 84.96 124.92C85.2 123.16 85.48 121.48 85.8 119.88L98.88 55.2H110.04ZM134.789 55.2V138H124.229V55.2H134.789ZM174.269 89.16V98.28H133.829V89.16H174.269ZM183.509 55.2V138H172.949V55.2H183.509Z" fill="#1A1A1A"/>
<rect x="212" width="6" height="180" fill="#1A1A1A"/>
<rect x="519" width="6" height="180" fill="#1A1A1A"/>
<path d="M284.08 55.2V138H273.52V55.2H284.08ZM310.84 55.2V64.56H246.88V55.2H310.84ZM339.407 55.08C343.407 55.08 347.407 55.08 351.407 55.08C355.487 55.08 359.487 55.16 363.407 55.32C367.407 55.4 371.247 55.56 374.927 55.8L374.447 64.08H341.207C338.727 64.08 336.887 64.72 335.687 66C334.567 67.2 334.007 69.2 334.007 72V121.2C334.007 124 334.567 126.04 335.687 127.32C336.887 128.6 338.727 129.24 341.207 129.24H374.447L374.927 137.4C371.247 137.64 367.407 137.8 363.407 137.88C359.487 137.96 355.487 138 351.407 138C347.407 138.08 343.407 138.12 339.407 138.12C334.527 138.12 330.647 136.84 327.767 134.28C324.967 131.64 323.527 128.12 323.447 123.72V69.48C323.527 65 324.967 61.48 327.767 58.92C330.647 56.36 334.527 55.08 339.407 55.08ZM325.607 90H369.767V98.52H325.607V90ZM462.194 54.12C468.594 54.12 473.754 54.84 477.674 56.28C481.594 57.64 484.434 60.04 486.194 63.48C488.034 66.92 488.954 71.76 488.954 78C488.954 82.48 488.434 86.24 487.394 89.28C486.354 92.24 484.714 94.56 482.474 96.24C480.314 97.84 477.394 98.88 473.714 99.36V99.96C475.074 100.28 476.394 100.96 477.674 102C479.034 102.96 480.274 104.28 481.394 105.96C482.514 107.56 483.354 109.52 483.914 111.84L491.954 138H480.674L473.354 112.08C472.314 108.96 470.914 106.76 469.154 105.48C467.394 104.12 465.114 103.44 462.314 103.44C457.434 103.44 453.194 103.44 449.594 103.44C445.994 103.36 442.994 103.28 440.594 103.2C438.194 103.12 436.274 103.08 434.834 103.08L435.194 94.32H461.954C466.034 94.24 469.234 93.76 471.554 92.88C473.954 92 475.674 90.44 476.714 88.2C477.754 85.88 478.274 82.68 478.274 78.6C478.274 74.52 477.754 71.4 476.714 69.24C475.674 67 473.954 65.44 471.554 64.56C469.234 63.68 466.034 63.24 461.954 63.24C455.394 63.24 449.714 63.28 444.914 63.36C440.194 63.44 436.994 63.48 435.314 63.48L433.634 55.2C436.674 54.88 439.514 54.64 442.154 54.48C444.794 54.32 447.674 54.24 450.794 54.24C453.994 54.16 457.794 54.12 462.194 54.12ZM444.074 55.2V138H433.634V55.2H444.074Z" fill="#1A1A1A"/>
<path d="M577.32 54.24C584.12 54.24 589.52 54.88 593.52 56.16C597.52 57.36 600.4 59.52 602.16 62.64C604 65.76 604.92 70.16 604.92 75.84C604.92 81.76 603.8 86.28 601.56 89.4C599.4 92.52 595.84 94.32 590.88 94.8V95.28C597.04 95.84 601.32 98 603.72 101.76C606.2 105.52 607.44 110.72 607.44 117.36C607.44 123.04 606.56 127.44 604.8 130.56C603.04 133.68 600.2 135.88 596.28 137.16C592.44 138.36 587.36 138.96 581.04 138.96C576.32 138.96 572.24 138.92 568.8 138.84C565.44 138.84 562.32 138.76 559.44 138.6C556.56 138.44 553.56 138.24 550.44 138L552.12 129.6C553.88 129.68 557.2 129.76 562.08 129.84C567.04 129.92 572.8 129.96 579.36 129.96C583.76 129.96 587.2 129.6 589.68 128.88C592.24 128.08 594.04 126.64 595.08 124.56C596.2 122.48 596.76 119.48 596.76 115.56C596.76 111.24 596.2 107.92 595.08 105.6C593.96 103.28 592.08 101.64 589.44 100.68C586.8 99.72 583.2 99.2 578.64 99.12H552V91.08H578.52C582.52 91 585.68 90.6 588 89.88C590.4 89.08 592.12 87.68 593.16 85.68C594.2 83.6 594.72 80.72 594.72 77.04C594.72 73.28 594.16 70.4 593.04 68.4C591.92 66.4 590.04 65.04 587.4 64.32C584.84 63.6 581.32 63.24 576.84 63.24C572.92 63.24 569.4 63.24 566.28 63.24C563.16 63.24 560.4 63.28 558 63.36C555.68 63.36 553.72 63.44 552.12 63.6L550.44 55.2C553.24 54.88 555.88 54.68 558.36 54.6C560.92 54.44 563.68 54.36 566.64 54.36C569.68 54.28 573.24 54.24 577.32 54.24ZM560.76 55.2V138H550.44V55.2H560.76ZM651.734 54.24C658.534 54.24 663.934 54.88 667.934 56.16C671.934 57.36 674.814 59.52 676.574 62.64C678.414 65.76 679.334 70.16 679.334 75.84C679.334 81.76 678.214 86.28 675.974 89.4C673.814 92.52 670.254 94.32 665.294 94.8V95.28C671.454 95.84 675.734 98 678.134 101.76C680.614 105.52 681.854 110.72 681.854 117.36C681.854 123.04 680.974 127.44 679.214 130.56C677.454 133.68 674.614 135.88 670.694 137.16C666.854 138.36 661.774 138.96 655.454 138.96C650.734 138.96 646.654 138.92 643.214 138.84C639.854 138.84 636.734 138.76 633.854 138.6C630.974 138.44 627.974 138.24 624.854 138L626.534 129.6C628.294 129.68 631.614 129.76 636.494 129.84C641.454 129.92 647.214 129.96 653.774 129.96C658.174 129.96 661.614 129.6 664.094 128.88C666.654 128.08 668.454 126.64 669.494 124.56C670.614 122.48 671.174 119.48 671.174 115.56C671.174 111.24 670.614 107.92 669.494 105.6C668.374 103.28 666.494 101.64 663.854 100.68C661.214 99.72 657.614 99.2 653.054 99.12H626.414V91.08H652.934C656.934 91 660.094 90.6 662.414 89.88C664.814 89.08 666.534 87.68 667.574 85.68C668.614 83.6 669.134 80.72 669.134 77.04C669.134 73.28 668.574 70.4 667.454 68.4C666.334 66.4 664.454 65.04 661.814 64.32C659.254 63.6 655.734 63.24 651.254 63.24C647.334 63.24 643.814 63.24 640.694 63.24C637.574 63.24 634.814 63.28 632.414 63.36C630.094 63.36 628.134 63.44 626.534 63.6L624.854 55.2C627.654 54.88 630.294 54.68 632.774 54.6C635.334 54.44 638.094 54.36 641.054 54.36C644.094 54.28 647.654 54.24 651.734 54.24ZM635.174 55.2V138H624.854V55.2H635.174ZM728.908 53.64C734.908 53.64 739.988 54.36 744.148 55.8C748.388 57.24 751.748 59.64 754.228 63C756.788 66.28 758.628 70.68 759.748 76.2C760.948 81.72 761.548 88.52 761.548 96.6C761.548 104.68 760.948 111.48 759.748 117C758.628 122.52 756.788 126.96 754.228 130.32C751.748 133.6 748.388 135.96 744.148 137.4C739.988 138.84 734.908 139.56 728.908 139.56C722.908 139.56 717.788 138.84 713.548 137.4C709.388 135.96 706.028 133.6 703.468 130.32C700.908 126.96 699.028 122.52 697.828 117C696.708 111.48 696.148 104.68 696.148 96.6C696.148 88.52 696.708 81.72 697.828 76.2C699.028 70.68 700.908 66.28 703.468 63C706.028 59.64 709.388 57.24 713.548 55.8C717.788 54.36 722.908 53.64 728.908 53.64ZM728.908 63.12C723.468 63.12 719.148 64.16 715.948 66.24C712.828 68.32 710.588 71.8 709.228 76.68C707.948 81.48 707.308 88.12 707.308 96.6C707.308 105 707.948 111.64 709.228 116.52C710.588 121.4 712.828 124.88 715.948 126.96C719.148 129.04 723.468 130.08 728.908 130.08C734.348 130.08 738.628 129.04 741.748 126.96C744.948 124.88 747.188 121.4 748.468 116.52C749.828 111.64 750.508 105 750.508 96.6C750.508 88.12 749.828 81.48 748.468 76.68C747.188 71.8 744.948 68.32 741.748 66.24C738.628 64.16 734.348 63.12 728.908 63.12ZM843.144 55.2V133.8C843.144 136.6 841.784 138 839.064 138H828.744C827.544 138 826.584 137.72 825.864 137.16C825.144 136.6 824.544 135.76 824.064 134.64L796.104 75.96C795.384 74.36 794.544 72.56 793.584 70.56C792.624 68.56 791.904 66.72 791.424 65.04H789.504C789.664 66.8 789.784 68.6 789.864 70.44C789.944 72.28 789.984 74.12 789.984 75.96V138H779.424V59.4C779.424 56.6 780.824 55.2 783.624 55.2H793.584C794.784 55.2 795.744 55.48 796.464 56.04C797.184 56.6 797.784 57.44 798.264 58.56L825.384 115.8C826.264 117.48 827.184 119.4 828.144 121.56C829.184 123.64 830.144 125.72 831.024 127.8H833.064C832.984 125.64 832.904 123.52 832.824 121.44C832.744 119.36 832.704 117.28 832.704 115.2V55.2H843.144Z" fill="#1A1A1A"/>
<path d="M12.12 225.3C10.72 225.3 9.49 225.04 8.43 224.52C7.39 223.98 6.58 223.23 6 222.27C5.44 221.29 5.16 220.14 5.16 218.82V209.28C5.16 207.94 5.44 206.79 6 205.83C6.58 204.87 7.39 204.13 8.43 203.61C9.49 203.07 10.72 202.8 12.12 202.8C13.54 202.8 14.76 203.07 15.78 203.61C16.82 204.13 17.63 204.87 18.21 205.83C18.79 206.79 19.08 207.94 19.08 209.28H15.3C15.3 208.24 15.02 207.45 14.46 206.91C13.92 206.37 13.14 206.1 12.12 206.1C11.1 206.1 10.31 206.37 9.75 206.91C9.19 207.45 8.91 208.23 8.91 209.25V218.82C8.91 219.84 9.19 220.63 9.75 221.19C10.31 221.73 11.1 222 12.12 222C13.14 222 13.92 221.73 14.46 221.19C15.02 220.63 15.3 219.84 15.3 218.82H19.08C19.08 220.12 18.79 221.26 18.21 222.24C17.63 223.22 16.82 223.98 15.78 224.52C14.76 225.04 13.54 225.3 12.12 225.3ZM32.5983 225V203.1H36.3483V211.89H42.2283V203.1H45.9783V225H42.2283V215.37H36.3483V225H32.5983ZM58.6266 225L64.1466 203.1H68.9766L74.5266 225H70.6866L69.4866 219.69H63.6666L62.4666 225H58.6266ZM64.3566 216.63H68.7966L67.4766 210.75C67.2566 209.77 67.0666 208.89 66.9066 208.11C66.7466 207.31 66.6366 206.73 66.5766 206.37C66.5166 206.73 66.4066 207.31 66.2466 208.11C66.1066 208.89 65.9166 209.76 65.6766 210.72L64.3566 216.63ZM87.0248 225V203.1H91.6148L97.7048 220.8C97.6448 220.16 97.5748 219.41 97.4948 218.55C97.4348 217.67 97.3848 216.78 97.3448 215.88C97.3048 214.96 97.2848 214.16 97.2848 213.48V203.1H100.705V225H96.1148L90.0848 207.3C90.1248 207.88 90.1748 208.58 90.2348 209.4C90.2948 210.22 90.3448 211.06 90.3848 211.92C90.4248 212.78 90.4448 213.57 90.4448 214.29V225H87.0248ZM121.273 225.3C119.873 225.3 118.643 225.04 117.583 224.52C116.543 223.98 115.733 223.23 115.153 222.27C114.593 221.29 114.313 220.14 114.313 218.82V209.28C114.313 207.94 114.593 206.79 115.153 205.83C115.733 204.87 116.543 204.13 117.583 203.61C118.643 203.07 119.873 202.8 121.273 202.8C122.693 202.8 123.913 203.07 124.933 203.61C125.973 204.13 126.783 204.87 127.363 205.83C127.943 206.79 128.233 207.94 128.233 209.28H124.453C124.453 208.24 124.173 207.45 123.613 206.91C123.073 206.37 122.293 206.1 121.273 206.1C120.253 206.1 119.463 206.37 118.903 206.91C118.343 207.45 118.063 208.23 118.063 209.25V218.82C118.063 219.84 118.343 220.63 118.903 221.19C119.463 221.75 120.253 222.03 121.273 222.03C122.293 222.03 123.073 221.75 123.613 221.19C124.173 220.63 124.453 219.84 124.453 218.82V216.6H120.733V213.36H128.233V218.82C128.233 220.14 127.943 221.29 127.363 222.27C126.783 223.23 125.973 223.98 124.933 224.52C123.913 225.04 122.693 225.3 121.273 225.3ZM142.081 225V203.1H155.221V206.37H145.771V212.07H154.171V215.31H145.771V221.73H155.221V225H142.081ZM175.79 225.3C174.29 225.3 172.99 225.05 171.89 224.55C170.79 224.05 169.94 223.34 169.34 222.42C168.76 221.48 168.46 220.38 168.44 219.12H172.19C172.19 220.02 172.51 220.73 173.15 221.25C173.81 221.75 174.7 222 175.82 222C176.9 222 177.74 221.75 178.34 221.25C178.96 220.75 179.27 220.06 179.27 219.18C179.27 218.44 179.05 217.8 178.61 217.26C178.19 216.7 177.58 216.32 176.78 216.12L174.26 215.43C172.54 214.99 171.21 214.2 170.27 213.06C169.35 211.92 168.89 210.54 168.89 208.92C168.89 207.68 169.17 206.6 169.73 205.68C170.29 204.76 171.08 204.05 172.1 203.55C173.14 203.05 174.36 202.8 175.76 202.8C177.88 202.8 179.56 203.35 180.8 204.45C182.04 205.53 182.67 206.99 182.69 208.83H178.94C178.94 207.97 178.66 207.3 178.1 206.82C177.54 206.32 176.75 206.07 175.73 206.07C174.75 206.07 173.99 206.3 173.45 206.76C172.91 207.22 172.64 207.87 172.64 208.71C172.64 209.47 172.84 210.12 173.24 210.66C173.66 211.18 174.26 211.55 175.04 211.77L177.65 212.49C179.39 212.93 180.72 213.72 181.64 214.86C182.56 215.98 183.02 217.37 183.02 219.03C183.02 220.27 182.72 221.37 182.12 222.33C181.52 223.27 180.68 224 179.6 224.52C178.52 225.04 177.25 225.3 175.79 225.3Z" fill="#888888"/>
<path d="M247.25 225V203.1H253.76C255.24 203.1 256.52 203.38 257.6 203.94C258.7 204.5 259.55 205.29 260.15 206.31C260.75 207.33 261.05 208.54 261.05 209.94V218.13C261.05 219.51 260.75 220.72 260.15 221.76C259.55 222.78 258.7 223.58 257.6 224.16C256.52 224.72 255.24 225 253.76 225H247.25ZM251 221.55H253.76C254.84 221.55 255.7 221.25 256.34 220.65C256.98 220.03 257.3 219.19 257.3 218.13V209.94C257.3 208.9 256.98 208.08 256.34 207.48C255.7 206.86 254.84 206.55 253.76 206.55H251V221.55ZM280.688 225V221.7H285.098V206.4H280.688V203.1H293.288V206.4H288.878V221.7H293.288V225H280.688ZM312.027 225L317.547 203.1H322.377L327.927 225H324.087L322.887 219.69H317.067L315.867 225H312.027ZM317.757 216.63H322.197L320.877 210.75C320.657 209.77 320.467 208.89 320.307 208.11C320.147 207.31 320.037 206.73 319.977 206.37C319.917 206.73 319.807 207.31 319.647 208.11C319.507 208.89 319.317 209.76 319.077 210.72L317.757 216.63ZM353.025 225.3C351.525 225.3 350.225 225.05 349.125 224.55C348.025 224.05 347.175 223.34 346.575 222.42C345.995 221.48 345.695 220.38 345.675 219.12H349.425C349.425 220.02 349.745 220.73 350.385 221.25C351.045 221.75 351.935 222 353.055 222C354.135 222 354.975 221.75 355.575 221.25C356.195 220.75 356.505 220.06 356.505 219.18C356.505 218.44 356.285 217.8 355.845 217.26C355.425 216.7 354.815 216.32 354.015 216.12L351.495 215.43C349.775 214.99 348.445 214.2 347.505 213.06C346.585 211.92 346.125 210.54 346.125 208.92C346.125 207.68 346.405 206.6 346.965 205.68C347.525 204.76 348.315 204.05 349.335 203.55C350.375 203.05 351.595 202.8 352.995 202.8C355.115 202.8 356.795 203.35 358.035 204.45C359.275 205.53 359.905 206.99 359.925 208.83H356.175C356.175 207.97 355.895 207.3 355.335 206.82C354.775 206.32 353.985 206.07 352.965 206.07C351.985 206.07 351.225 206.3 350.685 206.76C350.145 207.22 349.875 207.87 349.875 208.71C349.875 209.47 350.075 210.12 350.475 210.66C350.895 211.18 351.495 211.55 352.275 211.77L354.885 212.49C356.625 212.93 357.955 213.72 358.875 214.86C359.795 215.98 360.255 217.37 360.255 219.03C360.255 220.27 359.955 221.37 359.355 222.33C358.755 223.27 357.915 224 356.835 224.52C355.755 225.04 354.485 225.3 353.025 225.3ZM379.263 225V203.1H386.553C388.013 203.1 389.283 203.38 390.363 203.94C391.463 204.5 392.313 205.29 392.913 206.31C393.513 207.31 393.813 208.49 393.813 209.85C393.813 211.19 393.503 212.37 392.883 213.39C392.283 214.41 391.443 215.2 390.363 215.76C389.283 216.32 388.013 216.6 386.553 216.6H383.013V225H379.263ZM383.013 213.21H386.553C387.593 213.21 388.423 212.91 389.043 212.31C389.683 211.69 390.003 210.87 390.003 209.85C390.003 208.81 389.683 207.99 389.043 207.39C388.423 206.79 387.593 206.49 386.553 206.49H383.013V213.21ZM418.941 225.3C417.541 225.3 416.321 225.04 415.281 224.52C414.261 223.98 413.471 223.23 412.911 222.27C412.371 221.29 412.101 220.14 412.101 218.82V209.28C412.101 207.96 412.371 206.82 412.911 205.86C413.471 204.88 414.261 204.13 415.281 203.61C416.321 203.07 417.541 202.8 418.941 202.8C420.361 202.8 421.581 203.07 422.601 203.61C423.621 204.13 424.401 204.88 424.941 205.86C425.501 206.82 425.781 207.95 425.781 209.25V218.82C425.781 220.14 425.501 221.29 424.941 222.27C424.401 223.23 423.621 223.98 422.601 224.52C421.581 225.04 420.361 225.3 418.941 225.3ZM418.941 222C419.961 222 420.731 221.73 421.251 221.19C421.771 220.63 422.031 219.84 422.031 218.82V209.28C422.031 208.24 421.771 207.45 421.251 206.91C420.731 206.37 419.961 206.1 418.941 206.1C417.921 206.1 417.151 206.37 416.631 206.91C416.111 207.45 415.851 208.24 415.851 209.28V218.82C415.851 219.84 416.111 220.63 416.631 221.19C417.171 221.73 417.941 222 418.941 222ZM445.21 225V203.1H452.14C453.6 203.1 454.86 203.37 455.92 203.91C457 204.45 457.84 205.21 458.44 206.19C459.04 207.15 459.34 208.29 459.34 209.61C459.34 211.05 458.97 212.32 458.23 213.42C457.51 214.52 456.53 215.3 455.29 215.76L459.64 225H455.44L451.63 216.3H448.96V225H445.21ZM448.96 213H452.14C453.2 213 454.03 212.71 454.63 212.13C455.23 211.55 455.53 210.75 455.53 209.73C455.53 208.69 455.23 207.88 454.63 207.3C454.03 206.7 453.2 206.4 452.14 206.4H448.96V213ZM476.968 225L482.488 203.1H487.318L492.868 225H489.028L487.828 219.69H482.008L480.808 225H476.968ZM482.698 216.63H487.138L485.818 210.75C485.598 209.77 485.408 208.89 485.248 208.11C485.088 207.31 484.978 206.73 484.918 206.37C484.858 206.73 484.748 207.31 484.588 208.11C484.448 208.89 484.258 209.76 484.018 210.72L482.698 216.63Z" fill="#888888"/>
<path d="M552.25 225V203.1H558.76C560.24 203.1 561.52 203.38 562.6 203.94C563.7 204.5 564.55 205.29 565.15 206.31C565.75 207.33 566.05 208.54 566.05 209.94V218.13C566.05 219.51 565.75 220.72 565.15 221.76C564.55 222.78 563.7 223.58 562.6 224.16C561.52 224.72 560.24 225 558.76 225H552.25ZM556 221.55H558.76C559.84 221.55 560.7 221.25 561.34 220.65C561.98 220.03 562.3 219.19 562.3 218.13V209.94C562.3 208.9 561.98 208.08 561.34 207.48C560.7 206.86 559.84 206.55 558.76 206.55H556V221.55ZM587.128 225V203.1H600.268V206.37H590.818V212.07H599.218V215.31H590.818V221.73H600.268V225H587.128ZM620.657 225V203.1H625.097L627.227 210.06C627.447 210.76 627.627 211.4 627.767 211.98C627.907 212.56 627.997 212.98 628.037 213.24C628.077 212.98 628.167 212.56 628.307 211.98C628.447 211.4 628.617 210.76 628.817 210.06L630.857 203.1H635.297V225H631.787V218.19C631.787 217.19 631.817 216.1 631.877 214.92C631.937 213.74 632.007 212.56 632.087 211.38C632.167 210.2 632.257 209.08 632.357 208.02C632.477 206.96 632.577 206.03 632.657 205.23L629.717 215.58H626.297L623.267 205.23C623.367 205.99 623.467 206.89 623.567 207.93C623.667 208.95 623.757 210.05 623.837 211.23C623.937 212.39 624.017 213.57 624.077 214.77C624.137 215.97 624.167 217.11 624.167 218.19V225H620.657ZM662.465 225.3C661.065 225.3 659.845 225.04 658.805 224.52C657.785 223.98 656.995 223.23 656.435 222.27C655.895 221.29 655.625 220.14 655.625 218.82V209.28C655.625 207.96 655.895 206.82 656.435 205.86C656.995 204.88 657.785 204.13 658.805 203.61C659.845 203.07 661.065 202.8 662.465 202.8C663.885 202.8 665.105 203.07 666.125 203.61C667.145 204.13 667.925 204.88 668.465 205.86C669.025 206.82 669.305 207.95 669.305 209.25V218.82C669.305 220.14 669.025 221.29 668.465 222.27C667.925 223.23 667.145 223.98 666.125 224.52C665.105 225.04 663.885 225.3 662.465 225.3ZM662.465 222C663.485 222 664.255 221.73 664.775 221.19C665.295 220.63 665.555 219.84 665.555 218.82V209.28C665.555 208.24 665.295 207.45 664.775 206.91C664.255 206.37 663.485 206.1 662.465 206.1C661.445 206.1 660.675 206.37 660.155 206.91C659.635 207.45 659.375 208.24 659.375 209.28V218.82C659.375 219.84 659.635 220.63 660.155 221.19C660.695 221.73 661.465 222 662.465 222ZM697.073 225.3C695.673 225.3 694.443 225.04 693.383 224.52C692.343 223.98 691.533 223.23 690.953 222.27C690.393 221.29 690.113 220.14 690.113 218.82V209.28C690.113 207.94 690.393 206.79 690.953 205.83C691.533 204.87 692.343 204.13 693.383 203.61C694.443 203.07 695.673 202.8 697.073 202.8C698.493 202.8 699.713 203.07 700.733 203.61C701.773 204.13 702.583 204.87 703.163 205.83C703.743 206.79 704.033 207.94 704.033 209.28H700.253C700.253 208.24 699.973 207.45 699.413 206.91C698.873 206.37 698.093 206.1 697.073 206.1C696.053 206.1 695.263 206.37 694.703 206.91C694.143 207.45 693.863 208.23 693.863 209.25V218.82C693.863 219.84 694.143 220.63 694.703 221.19C695.263 221.73 696.053 222 697.073 222C698.093 222 698.873 221.73 699.413 221.19C699.973 220.63 700.253 219.84 700.253 218.82H704.033C704.033 220.12 703.743 221.26 703.163 222.24C702.583 223.22 701.773 223.98 700.733 224.52C699.713 225.04 698.493 225.3 697.073 225.3ZM724.721 225V203.1H731.651C733.111 203.1 734.371 203.37 735.431 203.91C736.511 204.45 737.351 205.21 737.951 206.19C738.551 207.15 738.851 208.29 738.851 209.61C738.851 211.05 738.481 212.32 737.741 213.42C737.021 214.52 736.041 215.3 734.801 215.76L739.151 225H734.951L731.141 216.3H728.471V225H724.721ZM728.471 213H731.651C732.711 213 733.541 212.71 734.141 212.13C734.741 211.55 735.041 210.75 735.041 209.73C735.041 208.69 734.741 207.88 734.141 207.3C733.541 206.7 732.711 206.4 731.651 206.4H728.471V213ZM757.98 225L763.5 203.1H768.33L773.88 225H770.04L768.84 219.69H763.02L761.82 225H757.98ZM763.71 216.63H768.15L766.83 210.75C766.61 209.77 766.42 208.89 766.26 208.11C766.1 207.31 765.99 206.73 765.93 206.37C765.87 206.73 765.76 207.31 765.6 208.11C765.46 208.89 765.27 209.76 765.03 210.72L763.71 216.63ZM800.538 225.3C799.138 225.3 797.908 225.04 796.848 224.52C795.808 223.98 794.998 223.23 794.418 222.27C793.858 221.29 793.578 220.14 793.578 218.82V209.28C793.578 207.94 793.858 206.79 794.418 205.83C794.998 204.87 795.808 204.13 796.848 203.61C797.908 203.07 799.138 202.8 800.538 202.8C801.958 202.8 803.178 203.07 804.198 203.61C805.238 204.13 806.048 204.87 806.628 205.83C807.208 206.79 807.498 207.94 807.498 209.28H803.718C803.718 208.24 803.438 207.45 802.878 206.91C802.338 206.37 801.558 206.1 800.538 206.1C799.518 206.1 798.728 206.37 798.168 206.91C797.608 207.45 797.328 208.23 797.328 209.25V218.82C797.328 219.84 797.608 220.63 798.168 221.19C798.728 221.73 799.518 222 800.538 222C801.558 222 802.338 221.73 802.878 221.19C803.438 220.63 803.718 219.84 803.718 218.82H807.498C807.498 220.12 807.208 221.26 806.628 222.24C806.048 223.22 805.238 223.98 804.198 224.52C803.178 225.04 801.958 225.3 800.538 225.3ZM833.016 225V217.05L826.596 203.1H830.526L833.946 210.69C834.206 211.29 834.426 211.88 834.606 212.46C834.786 213.04 834.906 213.49 834.966 213.81C835.046 213.49 835.166 213.04 835.326 212.46C835.506 211.88 835.726 211.29 835.986 210.69L839.316 203.1H843.216L836.796 217.05V225H833.016Z" fill="#888888"/>
<path d="M214.2 227.24C213.512 227.24 212.96 227.04 212.544 226.64C212.144 226.24 211.944 225.696 211.944 225.008C211.944 224.32 212.144 223.776 212.544 223.376C212.96 222.96 213.512 222.752 214.2 222.752C214.888 222.752 215.432 222.96 215.832 223.376C216.248 223.776 216.456 224.32 216.456 225.008C216.456 225.696 216.248 226.24 215.832 226.64C215.432 227.04 214.888 227.24 214.2 227.24Z" fill="#C8202A"/>
<path d="M521.2 227.24C520.512 227.24 519.96 227.04 519.544 226.64C519.144 226.24 518.944 225.696 518.944 225.008C518.944 224.32 519.144 223.776 519.544 223.376C519.96 222.96 520.512 222.752 521.2 222.752C521.888 222.752 522.432 222.96 522.832 223.376C523.248 223.776 523.456 224.32 523.456 225.008C523.456 225.696 523.248 226.24 522.832 226.64C522.432 227.04 521.888 227.24 521.2 227.24Z" fill="#C8202A"/>
</svg>
