<svg width="230" height="180" viewBox="0 0 230 180" fill="none" xmlns="http://www.w3.org/2000/svg">
<g clip-path="url(#clip0_1_2)">
<path d="M110.04 55.2L93.24 134.88C93 135.76 92.52 136.52 91.8 137.16C91.08 137.72 90.16 138 89.04 138H77.04C76 138 75.08 137.72 74.28 137.16C73.56 136.52 73.12 135.72 72.96 134.76L60 72.48C59.68 70.88 59.36 69.32 59.04 67.8C58.72 66.2 58.4 64.64 58.08 63.12H55.56C55.24 64.64 54.92 66.2 54.6 67.8C54.36 69.4 54.08 70.96 53.76 72.48L40.92 134.76C40.68 135.72 40.16 136.52 39.36 137.16C38.64 137.72 37.76 138 36.72 138H24.6C23.56 138 22.64 137.72 21.84 137.16C21.12 136.52 20.68 135.76 20.52 134.88L3.72 55.2H14.88L27.84 119.76C28.16 121.28 28.44 122.92 28.68 124.68C28.92 126.36 29.2 128.12 29.52 129.96H32.28C32.6 128.12 32.92 126.36 33.24 124.68C33.56 123 33.88 121.36 34.2 119.76L47.04 58.68C47.2 57.64 47.64 56.8 48.36 56.16C49.16 55.52 50.08 55.2 51.12 55.2H62.64C63.68 55.2 64.56 55.52 65.28 56.16C66 56.8 66.48 57.64 66.72 58.68L79.56 119.76C79.96 121.52 80.28 123.24 80.52 124.92C80.84 126.6 81.08 128.28 81.24 129.96H84.24C84.48 128.28 84.72 126.6 84.96 124.92C85.2 123.16 85.48 121.48 85.8 119.88L98.88 55.2H110.04Z" fill="#1A1A1A"/>
<rect x="132" y="10" width="5" height="160" fill="#1A1A1A"/>
<path d="M194 54.12C200.4 54.12 205.56 54.84 209.48 56.28C213.4 57.64 216.24 60.04 218 63.48C219.84 66.92 220.76 71.76 220.76 78C220.76 82.48 220.24 86.24 219.2 89.28C218.16 92.24 216.52 94.56 214.28 96.24C212.12 97.84 209.2 98.88 205.52 99.36V99.96C206.88 100.28 208.2 100.96 209.48 102C210.84 102.96 212.08 104.28 213.2 105.96C214.32 107.56 215.16 109.52 215.72 111.84L223.76 138H212.48L205.16 112.08C204.12 108.96 202.72 106.76 200.96 105.48C199.2 104.12 196.92 103.44 194.12 103.44C189.24 103.44 185 103.44 181.4 103.44C177.8 103.36 174.8 103.28 172.4 103.2C170 103.12 168.08 103.08 166.64 103.08L167 94.32H193.76C197.84 94.24 201.04 93.76 203.36 92.88C205.76 92 207.48 90.44 208.52 88.2C209.56 85.88 210.08 82.68 210.08 78.6C210.08 74.52 209.56 71.4 208.52 69.24C207.48 67 205.76 65.44 203.36 64.56C201.04 63.68 197.84 63.24 193.76 63.24C187.2 63.24 181.52 63.28 176.72 63.36C172 63.44 168.8 63.48 167.12 63.48L165.44 55.2C168.48 54.88 171.32 54.64 173.96 54.48C176.6 54.32 179.48 54.24 182.6 54.24C185.8 54.16 189.6 54.12 194 54.12ZM175.88 55.2V138H165.44V55.2H175.88Z" fill="#1A1A1A"/>
</g>
<defs>
<clipPath id="clip0_1_2">
<rect width="230" height="180" fill="white"/>
</clipPath>
</defs>
</svg>
